<mxfile host="app.diagrams.net" modified="2024-02-26T01:24:49.872Z" agent="Mozilla/5.0 (Windows NT 10.0; Win64; x64) AppleWebKit/537.36 (KHTML, like Gecko) Chrome/121.0.0.0 Safari/537.36" etag="jg7erkA8QnuayrCSr-d-" version="23.1.6" type="github">
  <diagram name="第 1 页" id="v3I6r_rQwzWQODkESoc9">
    <mxGraphModel dx="1259" dy="702" grid="1" gridSize="10" guides="1" tooltips="1" connect="1" arrows="1" fold="1" page="1" pageScale="1" pageWidth="827" pageHeight="1169" math="0" shadow="0">
      <root>
        <mxCell id="0" />
        <mxCell id="1" parent="0" />
        <mxCell id="BI0DToEm27fz6GxcxWoR-3" value="" style="endArrow=classic;html=1;rounded=0;entryX=0.442;entryY=0.278;entryDx=0;entryDy=0;entryPerimeter=0;" edge="1" parent="1">
          <mxGeometry width="50" height="50" relative="1" as="geometry">
            <mxPoint x="420" y="480" as="sourcePoint" />
            <mxPoint x="419.49999999999994" y="204.98000000000005" as="targetPoint" />
          </mxGeometry>
        </mxCell>
      </root>
    </mxGraphModel>
  </diagram>
</mxfile>
